# xmcd
#
# Track frame offsets:
#	150
#	17582
#	35455
#	51829
#	65883
#	79423
#	97507
#	115082
#	130707
#	145202
#	162519
#	175414
#	192399
#	211976
#	226493
#	244095
#	259424
#	271481
#	285180
#	301237
#	317172
#	333660
#
# Disc length: 4656 seconds
#
# Revision: 1
# Processed by: cddbd v1.5.2PL0 Copyright (c) Steve Scherf et al.
# Submitted via: EasyCDDAExtractor 11.5.0.1
#
DISCID=41122e16
DTITLE=Various Artist - NCT 100
DYEAR=2007
DGENRE=Country
TTITLE0=Brad Paisley - Online
TTITLE1=Rascal Flatts - Take Me There
TTITLE2=Gary Allan - Watching Airplanes
TTITLE3=Jo Dee Messina - Biker Chick
TTITLE4=Chris Cagle - What Kinda Gone
TTITLE5=Joanna Cotten - The Prize
TTITLE6=Tracy Lawrence - Til I Was A Daddy Too
TTITLE7=Josh Turner - Firecracker
TTITLE8=Emerson Drive - You Still Own Me
TTITLE9=Ty Herndon - Mighty Mighty Love
TTITLE10=Rio Grand - That's My Memory
TTITLE11=Rissi Palmer - Country Girl
TTITLE12=Carolina Rain - Dealin'
TTITLE13=Jake Owen - Something About A Woman
TTITLE14=Major Rising - Dare The World
TTITLE15=Jennifer Hanson - Joyride
TTITLE16=Mustang Creek - You'll Never Be A Lawyer (Because You Can't Pass The 
TTITLE16=Bar)
TTITLE17=Hal Ketchum ft. LeAnn Rimes - In Front Of The Alamo
TTITLE18=Kasey Jones - Lie To Me Darlin
TTITLE19=Jeremy McComb - Wagon Wheel
TTITLE20=Zachary Hunter - In Your Dreams
TTITLE21=Tommy Lee Snyder - Touchdown Jesus
EXTD=
EXTT0=
EXTT1=
EXTT2=
EXTT3=
EXTT4=
EXTT5=
EXTT6=
EXTT7=
EXTT8=
EXTT9=
EXTT10=
EXTT11=
EXTT12=
EXTT13=
EXTT14=
EXTT15=
EXTT16=
EXTT17=
EXTT18=
EXTT19=
EXTT20=
EXTT21=
PLAYORDER=
